# xmcd
#
# Track frame offsets:
# 150
# 1240
# 29373
# 30566
# 60312
# 61146
# 88055
# 91705
# 118264
# 119252
# 139693
# 174212
# 202044
# 202940
# 224352
# 224989
# 244609
# 247467
# 272977
# 274888
# 297308
#
# Disc length: 4012 seconds
#
# Revision: 1
# Processed by: cddbd v1.5.2PL0 Copyright (c) Steve Scherf et al.
# Submitted via: CedeCatalogueitor 2.6.0.6 http://personales.ya.com/cdcatalogueitor
#
DISCID=420faa15
DTITLE=Gebrüder Teichmann - The Number Of The Beat
DYEAR=1900
DGENRE=
TTITLE0=Auftakt
TTITLE1=Un Bug (Feat Alice)
TTITLE2=Interregio
TTITLE3=Dance And More
TTITLE4=Zwischenspiel
TTITLE5=606
TTITLE6=Intermezzo
TTITLE7=Minimal Scheissegal
TTITLE8=Hoplahop
TTITLE9=Nick
TTITLE10=Karacho
TTITLE11=So Dance
TTITLE12=Start
TTITLE13=Whaterverman
TTITLE14=Moog Interlude
TTITLE15=Romy
TTITLE16=Jodel
TTITLE17=Uffset
TTITLE18=Knarz V
TTITLE19=Inviolata Version
TTITLE20=Extro
EXTD=
EXTT0=
EXTT1=
EXTT2=
EXTT3=
EXTT4=
EXTT5=
EXTT6=
EXTT7=
EXTT8=
EXTT9=
EXTT10=
EXTT11=
EXTT12=
EXTT13=
EXTT14=
EXTT15=
EXTT16=
EXTT17=
EXTT18=
EXTT19=
EXTT20=
PLAYORDER=
